# xmcd CD database file
#
# Track frame offsets:
#	150
#	23816
#	50589
#	62754
#	89679
#	115008
#	140968
#	189183
#	216588
#	241808
#	271845
#	318245
#
# Disc length: 4648 seconds
#
# Revision: 0
# Processed by: cddbd v1.5.2PL0 Copyright (c) Steve Scherf et al.
# Submitted via: CDex 1.70beta2
#
DISCID=af12260c
DTITLE=Various Artist - BEST
DYEAR=2008
DGENRE=Jazz
TTITLE0=Herbie Hancock - Court and Spark
TTITLE1=Fourplay - 101 Eastbound
TTITLE2=Oscar Peterson - The days of wine and roses
TTITLE3=Bill Evans - Autumn Leaves
TTITLE4=Miles Davis - Blue in Green
TTITLE5=Miles Davis - Milestones
TTITLE6=John Coltrane - Stardust
TTITLE7=T-SQUARE - TAKING MOUNTAIN (TOPS)
TTITLE8=Freddie Hubbard - All Or Nothing At All
TTITLE9=Wes Montgomery - Misty
TTITLE10=Miles Davis - My Funny Valentine
TTITLE11=Keith Jarrett - Round Midnight
EXTD=YEAR: 2008
EXTT0=
EXTT1=
EXTT2=
EXTT3=
EXTT4=
EXTT5=
EXTT6=
EXTT7=
EXTT8=
EXTT9=
EXTT10=
EXTT11=
PLAYORDER=
